<?xml version="1.0" encoding="utf-8"?>
<!-- Generator: Adobe Illustrator 16.0.0, SVG Export Plug-In . SVG Version: 6.00 Build 0)  -->
<!DOCTYPE svg PUBLIC "-//W3C//DTD SVG 1.1//EN" "http://www.w3.org/Graphics/SVG/1.1/DTD/svg11.dtd">
<svg version="1.1" id="图层_1" xmlns="http://www.w3.org/2000/svg" xmlns:xlink="http://www.w3.org/1999/xlink" x="0px" y="0px"
	 width="256px" height="256px" viewBox="0 0 256 256" enable-background="new 0 0 256 256" xml:space="preserve">
<path d="M176.036,83.359c1.835,0.918,2.985,3.214,2.523,5.278v78.727c0,1.836-0.458,3.444-1.836,4.822
	c-1.148,1.147-2.983,1.834-4.59,1.834h-3.217c-13.309-4.59-27.31-6.886-41.312-6.656c-14.002-0.229-28,2.066-41.314,6.656h-2.525
	c-1.835,0-3.443-0.458-4.591-1.834c-1.148-1.378-1.835-2.986-1.835-4.822V88.637c0-2.064,0.917-4.13,2.523-5.278
	c0.918-0.918,2.296-1.378,3.902-1.378h2.065c13.542,5.278,27.773,8.034,42.003,8.492c14.458-0.458,28.918-3.214,42.69-7.804
	c0.458-0.458,1.147-0.688,1.838-0.688C173.972,81.981,175.119,82.439,176.036,83.359L176.036,83.359z M163.414,112.965
	c2.523,0,4.819-1.607,5.737-3.903c0.919-2.296,0.46-5.05-1.376-6.886c-1.607-1.834-4.361-2.293-6.657-1.376
	s-3.903,3.212-3.675,5.738c0,1.608,0.69,3.216,1.839,4.362C160.202,112.275,161.806,112.965,163.414,112.965L163.414,112.965z
	 M89.737,154.508H98l10.56-31.444v-4.592H87.671v6.428h12.853L89.737,154.508z M113.606,154.508h22.723v-6.195h-12.624l4.82-5.508
	l2.528-2.756c0.686-0.688,1.146-1.147,1.376-1.606c0.229-0.46,0.458-0.689,0.917-1.149l0.918-1.148
	c0.919-1.377,1.377-2.756,1.836-3.901c0.46-1.146,0.688-2.524,0.688-3.902c0-3.213-0.918-5.738-2.756-7.346
	c-1.834-1.606-4.592-2.523-8.032-2.523c-3.673,0-6.427,0.917-8.493,2.754c-1.838,1.836-2.984,4.362-3.214,7.806l7.116,0.458
	c0-0.458,0-0.918,0.228-1.378c0.232-0.458,0.232-0.918,0.458-1.378c0.232-0.688,0.69-1.148,1.378-1.605
	c0.688-0.46,1.376-0.46,2.066-0.46c1.146,0,2.065,0.232,2.523,0.918c0.458,0.458,0.918,1.375,0.918,2.524
	c0,0.689,0,1.376-0.229,2.065l-0.685,2.07c-0.23,0.69-0.918,1.606-1.836,2.985c-0.918,1.376-1.606,2.294-2.296,2.984l-10.1,12.163
	L113.606,154.508L113.606,154.508z M141.379,140.969c0,2.526,0.229,4.359,0.458,5.968c0.231,1.608,0.918,2.754,1.605,3.899
	c0.919,1.376,2.299,2.524,3.674,3.214c1.606,0.688,3.442,0.919,5.738,0.919c2.293,0,3.899-0.23,5.279-0.919
	c1.376-0.456,2.524-1.605,3.67-2.754c0.921-1.15,1.608-2.525,1.838-4.131c0.458-1.608,0.687-3.67,0.687-6.429v-8.951
	c0-2.524-0.229-4.36-0.458-5.967c-0.229-1.377-0.687-2.756-1.608-3.902c-0.918-1.379-2.291-2.524-3.67-3.212
	c-1.838-0.69-3.67-1.148-5.737-0.921c-2.294,0-3.901,0.23-5.28,0.921c-1.375,0.688-2.755,1.606-3.671,2.751
	c-0.919,1.15-1.608,2.527-1.835,4.132c-0.46,1.607-0.689,3.673-0.689,6.426V140.969L141.379,140.969z M156.986,140.278
	c0,3.217-0.23,5.508-0.918,6.658c-0.458,1.148-1.607,1.834-2.986,1.834c-1.375,0-2.521-0.686-2.983-1.834
	c-0.688-1.15-0.918-3.441-0.918-6.658v-7.575c0-3.212,0.228-5.508,0.918-6.656c0.46-1.147,1.608-1.835,2.983-1.835
	c1.379,0,2.526,0.689,2.986,1.835c0.458,1.148,0.918,3.444,0.918,6.656V140.278z M163.414,104.474c0.458,0,1.148,0,1.607,0.458
	c0.458,0.458,0.688,0.918,0.458,1.606c0,1.148-0.917,2.066-2.065,2.066c-0.458,0-1.15-0.23-1.378-0.688
	c-0.457-0.459-0.688-0.917-0.688-1.377C161.346,105.391,162.264,104.474,163.414,104.474z"/>
</svg>
