<?xml version="1.0" standalone="no"?><!DOCTYPE svg PUBLIC "-//W3C//DTD SVG 1.1//EN" "http://www.w3.org/Graphics/SVG/1.1/DTD/svg11.dtd"><svg t="1609735998121" class="icon" viewBox="0 0 1024 1024" version="1.1" xmlns="http://www.w3.org/2000/svg" p-id="8805" width="80" height="80" xmlns:xlink="http://www.w3.org/1999/xlink"><defs><style type="text/css"></style></defs><path d="M950.784 761.856L596.48 136.704c-37.888-66.048-132.096-66.048-169.984 0L73.728 761.856c-37.888 66.048-11.776 174.592 64 174.592H885.76c75.264 0 102.4-108.544 65.024-174.592z m-433.152-438.784c22.528 0 35.84 28.16 34.304 53.248l-25.088 293.888h-19.456l-22.528-293.888c-1.024-24.576 11.776-53.248 32.768-53.248z m2.048 466.432c-20.48 0-36.864-16.896-36.864-38.4 0-20.992 16.384-38.4 36.864-38.4s36.864 16.896 36.864 38.4-16.384 38.4-36.864 38.4z" fill="#fec609" p-id="8806"></path></svg>